<svg width="16" height="16" viewBox="0 0 16 16" fill="none" xmlns="http://www.w3.org/2000/svg">
<path d="M14.5044 11.6725C14.8499 10.9559 15.0194 10.1673 14.9989 9.37202C14.9783 8.57677 14.7684 7.7979 14.3864 7.10011C14.0044 6.40231 13.4614 5.80573 12.8025 5.35993C12.1437 4.91412 11.388 4.63196 10.5981 4.53688C10.3353 3.92586 9.95327 3.37341 9.4743 2.91189C8.99533 2.45037 8.42909 2.08906 7.80874 1.8491C7.18839 1.60915 6.5264 1.49538 5.86154 1.51446C5.19667 1.53354 4.54229 1.68509 3.93672 1.96022C3.33116 2.23535 2.78657 2.62855 2.33486 3.11677C1.88314 3.605 1.53338 4.17845 1.30605 4.80353C1.07872 5.42862 0.978399 6.09278 1.01095 6.75713C1.04351 7.42147 1.20829 8.07264 1.49564 8.6725L1.04127 10.2169C0.990463 10.3893 0.987066 10.5722 1.03143 10.7464C1.0758 10.9205 1.16629 11.0795 1.29338 11.2066C1.42047 11.3337 1.57947 11.4242 1.75365 11.4686C1.92782 11.513 2.11073 11.5096 2.28314 11.4588L3.82752 11.0044C4.32341 11.2426 4.85507 11.3978 5.40127 11.4638C5.66663 12.0855 6.05532 12.647 6.54383 13.1143C7.03235 13.5815 7.61054 13.9449 8.24347 14.1824C8.8764 14.4199 9.55091 14.5265 10.2262 14.4959C10.9016 14.4653 11.5637 14.2981 12.1725 14.0044L13.7169 14.4588C13.8892 14.5095 14.0721 14.5129 14.2462 14.4685C14.4203 14.4242 14.5792 14.3338 14.7063 14.2068C14.8333 14.0798 14.9238 13.9209 14.9683 13.7468C15.0127 13.5727 15.0094 13.3899 14.9588 13.2175L14.5044 11.6725ZM3.87502 9.96875C3.82724 9.96887 3.7797 9.9756 3.73377 9.98876L2.00002 10.5L2.51064 8.76501C2.54696 8.63966 2.53283 8.50508 2.47127 8.39001C2.01896 7.54412 1.88569 6.56386 2.09574 5.62792C2.3058 4.69198 2.8452 3.86269 3.61561 3.29122C4.38602 2.71975 5.33613 2.44416 6.29276 2.51469C7.24938 2.58522 8.14881 2.99717 8.82708 3.67544C9.50535 4.35371 9.9173 5.25314 9.98783 6.20976C10.0584 7.16639 9.78277 8.11651 9.2113 8.88691C8.63983 9.65732 7.81054 10.1967 6.8746 10.4068C5.93866 10.6168 4.9584 10.4836 4.11252 10.0313C4.03978 9.991 3.95815 9.96952 3.87502 9.96875ZM13.4869 11.7644L14 13.5L12.265 12.9894C12.1397 12.9531 12.0051 12.9672 11.89 13.0288C10.9693 13.5204 9.89294 13.633 8.8904 13.3425C7.88786 13.052 7.03842 12.3815 6.52314 11.4738C7.20775 11.4023 7.87021 11.1901 8.46896 10.8506C9.0677 10.511 9.58982 10.0514 10.0025 9.50052C10.4153 8.94965 10.7097 8.31943 10.8674 7.6494C11.025 6.97937 11.0425 6.28399 10.9188 5.60688C11.5153 5.74748 12.0715 6.02327 12.5445 6.41294C13.0175 6.80262 13.3946 7.29577 13.6468 7.85433C13.8989 8.41289 14.0194 9.02192 13.9988 9.63442C13.9782 10.2469 13.8172 10.8465 13.5281 11.3869C13.4659 11.5026 13.4518 11.6383 13.4888 11.7644H13.4869Z" fill="#303030"/>
</svg>
