<svg xmlns="http://www.w3.org/2000/svg" width="21" height="20" viewBox="0 0 21 20" fill="none">
<path d="M3 3.78906H18C18.1554 3.78906 18.3042 3.85105 18.4141 3.96094C18.5239 4.07082 18.5859 4.2196 18.5859 4.375V15C18.5859 15.3212 18.4585 15.6294 18.2314 15.8564C18.0044 16.0835 17.6962 16.2109 17.375 16.2109H3.625C3.30384 16.2109 2.99565 16.0835 2.76855 15.8564C2.54146 15.6294 2.41406 15.3212 2.41406 15V4.375C2.41406 4.2196 2.47605 4.07082 2.58594 3.96094C2.69582 3.85105 2.8446 3.78906 3 3.78906ZM17.3486 5.76758L10.8965 11.6826C10.7884 11.7818 10.6467 11.8369 10.5 11.8369C10.3533 11.8369 10.2116 11.7818 10.1035 11.6826L3.65137 5.76758L3.58594 5.70703V15.0391H17.4141V5.70703L17.3486 5.76758ZM4.58105 5.02832L10.4736 10.4307L10.5 10.4551L10.5264 10.4307L16.4189 5.02832L16.4932 4.96094H4.50684L4.58105 5.02832Z" fill="#303030" stroke="#303030" stroke-width="0.078125"/>
</svg>