<svg xmlns="http://www.w3.org/2000/svg" width="31" height="30" viewBox="0 0 31 30" fill="none">
  <path d="M10.8125 2.87109H20.1875C20.4206 2.87109 20.6447 2.96408 20.8096 3.12891C20.9742 3.2937 21.0664 3.51707 21.0664 3.75C21.0664 3.98293 20.9742 4.2063 20.8096 4.37109C20.6447 4.53592 20.4206 4.62891 20.1875 4.62891H19.1914V11.374L19.2002 11.3877L26.4297 23.4404L26.4463 23.4688H26.4482C26.6032 23.7377 26.6875 24.0418 26.6914 24.3525C26.6954 24.6736 26.6142 24.9901 26.4561 25.2695C26.2977 25.5492 26.0677 25.7825 25.79 25.9443C25.5124 26.1062 25.1964 26.1914 24.875 26.1914H6.125C5.8041 26.1907 5.48894 26.1053 5.21191 25.9434C4.93479 25.7813 4.70581 25.548 4.54785 25.2686C4.38992 24.989 4.30836 24.6726 4.3125 24.3516C4.31667 24.0305 4.40611 23.7158 4.57129 23.4404L11.8008 11.3877L11.8086 11.374V4.62891H10.8125C10.5795 4.62883 10.3562 4.53586 10.1914 4.37109C10.0267 4.20628 9.93359 3.98304 9.93359 3.75C9.93359 3.51696 10.0267 3.29372 10.1914 3.12891C10.3562 2.96414 10.5795 2.87117 10.8125 2.87109ZM15.1006 20.0029C13.042 18.9601 11.1478 18.5355 9.46289 18.7412L9.43457 18.7441L9.41992 18.7695L6.0752 24.3447L6.02148 24.4336H24.9795L24.9258 24.3447L23.04 21.2178L23.0166 21.1797L22.9736 21.1924C22.2342 21.4041 21.4684 21.5092 20.6992 21.5059H20.6982C19.1851 21.5058 17.3196 21.1252 15.1006 20.0029ZM13.5664 11.6182C13.5667 11.7772 13.5235 11.9332 13.4414 12.0693L10.5742 16.8545L10.5225 16.9395L10.6221 16.9434C12.2721 17.0004 14.038 17.4972 15.8965 18.4375C18.5641 19.7878 20.5781 19.9085 21.999 19.6279L22.0811 19.6113L22.0381 19.54L17.5596 12.0693H17.5586C17.4765 11.9332 17.4333 11.7771 17.4336 11.6182V4.62891H13.5664V11.6182Z" fill="#343434" stroke="#767676" stroke-width="0.117188"/>
</svg>