<svg xmlns="http://www.w3.org/2000/svg" width="18" height="28" viewBox="0 0 18 28" fill="none">
<mask id="path-1-outside-1_2978_3212" maskUnits="userSpaceOnUse" x="-0.22168" y="-0.125" width="18" height="28" fill="black">
<rect fill="white" x="-0.22168" y="-0.125" width="18" height="28"/>
<path d="M14.0953 19.011C14.7566 19.2162 15.3392 19.6191 15.7647 20.1654C16.1903 20.7117 16.4383 21.3752 16.4755 22.0666L16.7775 26.6128C16.7848 26.7384 16.7433 26.8619 16.6616 26.9575C16.5798 27.0532 16.4643 27.1135 16.3391 27.1259H16.3034C16.1767 27.1294 16.0536 27.0831 15.9607 26.9968C15.8678 26.9106 15.8125 26.7914 15.8066 26.6647L15.5046 22.1186C15.4797 21.6265 15.3054 21.1536 15.0049 20.7632C14.7043 20.3727 14.2919 20.0831 13.8225 19.9332L13.1146 19.7286C12.5646 20.411 11.8688 20.9616 11.0781 21.3399C10.2875 21.7182 9.42216 21.9145 8.54569 21.9145C7.66922 21.9145 6.80389 21.7182 6.01325 21.3399C5.22261 20.9616 4.52675 20.411 3.97679 19.7286L3.26889 19.9332C2.79953 20.0831 2.38706 20.3727 2.08651 20.7632C1.78597 21.1536 1.61165 21.6265 1.58681 22.1186L1.28481 26.6647C1.27736 26.7879 1.22311 26.9036 1.13317 26.9881C1.04323 27.0726 0.92439 27.1196 0.800974 27.1194H0.752264C0.623553 27.1102 0.503733 27.0504 0.419107 26.9529C0.334482 26.8555 0.291968 26.7285 0.300895 26.5998L0.602891 22.0536C0.640081 21.3622 0.888123 20.6987 1.31365 20.1524C1.73919 19.6061 2.3218 19.2032 2.98313 18.998L3.83391 18.7512C4.20322 18.641 4.53844 18.4387 4.80809 18.1634H3.40852C2.84899 18.1626 2.31262 17.9399 1.91697 17.5443C1.52132 17.1486 1.29866 16.6122 1.2978 16.0527V8.06119C1.2978 6.15529 2.05492 4.32746 3.40259 2.97979C4.75026 1.63211 6.5781 0.875 8.48399 0.875C10.3899 0.875 12.2177 1.63211 13.5654 2.97979C14.9131 4.32746 15.6702 6.15529 15.6702 8.06119V16.0657C15.6693 16.6252 15.4467 17.1616 15.051 17.5572C14.6554 17.9529 14.119 18.1755 13.5595 18.1764H12.2606C12.5302 18.4517 12.8654 18.654 13.2347 18.7642L14.0953 19.011ZM8.54569 20.9593C9.23053 20.9565 9.90723 20.8106 10.5324 20.531C11.1576 20.2514 11.7175 19.8442 12.1761 19.3357C11.4657 18.8898 10.947 18.1952 10.7214 17.3873L10.572 16.8613C9.93784 17.1586 9.24606 17.3127 8.54569 17.3127C7.84532 17.3127 7.15353 17.1586 6.5194 16.8613L6.37002 17.3873C6.14464 18.1944 5.62729 18.8888 4.9185 19.3357C5.37662 19.8436 5.93607 20.2499 6.5608 20.5285C7.18553 20.807 7.86168 20.9515 8.54569 20.9528V20.9593ZM8.54569 16.3385C9.57002 16.3367 10.5519 15.9291 11.2762 15.2047C12.0005 14.4804 12.4082 13.4985 12.4099 12.4742V8.19108C12.2865 7.79167 11.5202 5.59327 9.62703 5.918C9.19514 6.60317 7.57151 8.75285 4.68145 8.65219V12.4742C4.68317 13.4985 5.09084 14.4804 5.81516 15.2047C6.53947 15.9291 7.52136 16.3367 8.54569 16.3385ZM14.7155 16.0657V8.06119C14.7155 7.24541 14.5548 6.43763 14.2426 5.68395C13.9304 4.93028 13.4729 4.24547 12.896 3.66863C12.3192 3.0918 11.6344 2.63422 10.8807 2.32204C10.127 2.00986 9.31925 1.84918 8.50347 1.84918C7.6877 1.84918 6.87992 2.00986 6.12624 2.32204C5.37257 2.63422 4.68776 3.0918 4.11092 3.66863C3.53408 4.24547 3.07651 4.93028 2.76433 5.68395C2.45214 6.43763 2.29146 7.24541 2.29147 8.06119V16.0657C2.29147 16.3671 2.41121 16.6562 2.62435 16.8693C2.83749 17.0825 3.12658 17.2022 3.42801 17.2022H5.40884C5.41712 17.1736 5.42687 17.1454 5.43806 17.1178L5.65887 16.345C5.05482 15.8963 4.56405 15.3127 4.22575 14.6406C3.88746 13.9685 3.71101 13.2266 3.71052 12.4742V8.12289C3.71099 8.05355 3.72597 7.98509 3.75449 7.92189C3.78301 7.85869 3.82445 7.80217 3.87613 7.75595C3.92747 7.70948 3.98843 7.67492 4.05466 7.65471C4.1209 7.6345 4.19077 7.62916 4.25931 7.63904C7.31498 8.03521 8.8347 5.36596 8.89639 5.25555C8.93083 5.19512 8.9775 5.14253 9.03341 5.10116C9.08933 5.05978 9.15326 5.03052 9.22112 5.01526C11.7118 4.39503 13.0334 6.69409 13.3874 7.993C13.3921 8.03616 13.3921 8.07972 13.3874 8.12289V12.4742C13.3869 13.2266 13.2104 13.9685 12.8721 14.6406C12.5338 15.3127 12.0431 15.8963 11.439 16.345L11.6598 17.1178C11.671 17.1454 11.6808 17.1736 11.689 17.2022H13.5757C13.7252 17.2027 13.8734 17.1736 14.0116 17.1166C14.1499 17.0597 14.2756 16.9761 14.3815 16.8705C14.4873 16.7649 14.5713 16.6395 14.6287 16.5014C14.686 16.3633 14.7155 16.2152 14.7155 16.0657Z"/>
</mask>
<path d="M14.0953 19.011C14.7566 19.2162 15.3392 19.6191 15.7647 20.1654C16.1903 20.7117 16.4383 21.3752 16.4755 22.0666L16.7775 26.6128C16.7848 26.7384 16.7433 26.8619 16.6616 26.9575C16.5798 27.0532 16.4643 27.1135 16.3391 27.1259H16.3034C16.1767 27.1294 16.0536 27.0831 15.9607 26.9968C15.8678 26.9106 15.8125 26.7914 15.8066 26.6647L15.5046 22.1186C15.4797 21.6265 15.3054 21.1536 15.0049 20.7632C14.7043 20.3727 14.2919 20.0831 13.8225 19.9332L13.1146 19.7286C12.5646 20.411 11.8688 20.9616 11.0781 21.3399C10.2875 21.7182 9.42216 21.9145 8.54569 21.9145C7.66922 21.9145 6.80389 21.7182 6.01325 21.3399C5.22261 20.9616 4.52675 20.411 3.97679 19.7286L3.26889 19.9332C2.79953 20.0831 2.38706 20.3727 2.08651 20.7632C1.78597 21.1536 1.61165 21.6265 1.58681 22.1186L1.28481 26.6647C1.27736 26.7879 1.22311 26.9036 1.13317 26.9881C1.04323 27.0726 0.92439 27.1196 0.800974 27.1194H0.752264C0.623553 27.1102 0.503733 27.0504 0.419107 26.9529C0.334482 26.8555 0.291968 26.7285 0.300895 26.5998L0.602891 22.0536C0.640081 21.3622 0.888123 20.6987 1.31365 20.1524C1.73919 19.6061 2.3218 19.2032 2.98313 18.998L3.83391 18.7512C4.20322 18.641 4.53844 18.4387 4.80809 18.1634H3.40852C2.84899 18.1626 2.31262 17.9399 1.91697 17.5443C1.52132 17.1486 1.29866 16.6122 1.2978 16.0527V8.06119C1.2978 6.15529 2.05492 4.32746 3.40259 2.97979C4.75026 1.63211 6.5781 0.875 8.48399 0.875C10.3899 0.875 12.2177 1.63211 13.5654 2.97979C14.9131 4.32746 15.6702 6.15529 15.6702 8.06119V16.0657C15.6693 16.6252 15.4467 17.1616 15.051 17.5572C14.6554 17.9529 14.119 18.1755 13.5595 18.1764H12.2606C12.5302 18.4517 12.8654 18.654 13.2347 18.7642L14.0953 19.011ZM8.54569 20.9593C9.23053 20.9565 9.90723 20.8106 10.5324 20.531C11.1576 20.2514 11.7175 19.8442 12.1761 19.3357C11.4657 18.8898 10.947 18.1952 10.7214 17.3873L10.572 16.8613C9.93784 17.1586 9.24606 17.3127 8.54569 17.3127C7.84532 17.3127 7.15353 17.1586 6.5194 16.8613L6.37002 17.3873C6.14464 18.1944 5.62729 18.8888 4.9185 19.3357C5.37662 19.8436 5.93607 20.2499 6.5608 20.5285C7.18553 20.807 7.86168 20.9515 8.54569 20.9528V20.9593ZM8.54569 16.3385C9.57002 16.3367 10.5519 15.9291 11.2762 15.2047C12.0005 14.4804 12.4082 13.4985 12.4099 12.4742V8.19108C12.2865 7.79167 11.5202 5.59327 9.62703 5.918C9.19514 6.60317 7.57151 8.75285 4.68145 8.65219V12.4742C4.68317 13.4985 5.09084 14.4804 5.81516 15.2047C6.53947 15.9291 7.52136 16.3367 8.54569 16.3385ZM14.7155 16.0657V8.06119C14.7155 7.24541 14.5548 6.43763 14.2426 5.68395C13.9304 4.93028 13.4729 4.24547 12.896 3.66863C12.3192 3.0918 11.6344 2.63422 10.8807 2.32204C10.127 2.00986 9.31925 1.84918 8.50347 1.84918C7.6877 1.84918 6.87992 2.00986 6.12624 2.32204C5.37257 2.63422 4.68776 3.0918 4.11092 3.66863C3.53408 4.24547 3.07651 4.93028 2.76433 5.68395C2.45214 6.43763 2.29146 7.24541 2.29147 8.06119V16.0657C2.29147 16.3671 2.41121 16.6562 2.62435 16.8693C2.83749 17.0825 3.12658 17.2022 3.42801 17.2022H5.40884C5.41712 17.1736 5.42687 17.1454 5.43806 17.1178L5.65887 16.345C5.05482 15.8963 4.56405 15.3127 4.22575 14.6406C3.88746 13.9685 3.71101 13.2266 3.71052 12.4742V8.12289C3.71099 8.05355 3.72597 7.98509 3.75449 7.92189C3.78301 7.85869 3.82445 7.80217 3.87613 7.75595C3.92747 7.70948 3.98843 7.67492 4.05466 7.65471C4.1209 7.6345 4.19077 7.62916 4.25931 7.63904C7.31498 8.03521 8.8347 5.36596 8.89639 5.25555C8.93083 5.19512 8.9775 5.14253 9.03341 5.10116C9.08933 5.05978 9.15326 5.03052 9.22112 5.01526C11.7118 4.39503 13.0334 6.69409 13.3874 7.993C13.3921 8.03616 13.3921 8.07972 13.3874 8.12289V12.4742C13.3869 13.2266 13.2104 13.9685 12.8721 14.6406C12.5338 15.3127 12.0431 15.8963 11.439 16.345L11.6598 17.1178C11.671 17.1454 11.6808 17.1736 11.689 17.2022H13.5757C13.7252 17.2027 13.8734 17.1736 14.0116 17.1166C14.1499 17.0597 14.2756 16.9761 14.3815 16.8705C14.4873 16.7649 14.5713 16.6395 14.6287 16.5014C14.686 16.3633 14.7155 16.2152 14.7155 16.0657Z" fill="#343434"/>
<path d="M14.0953 19.011C14.7566 19.2162 15.3392 19.6191 15.7647 20.1654C16.1903 20.7117 16.4383 21.3752 16.4755 22.0666L16.7775 26.6128C16.7848 26.7384 16.7433 26.8619 16.6616 26.9575C16.5798 27.0532 16.4643 27.1135 16.3391 27.1259H16.3034C16.1767 27.1294 16.0536 27.0831 15.9607 26.9968C15.8678 26.9106 15.8125 26.7914 15.8066 26.6647L15.5046 22.1186C15.4797 21.6265 15.3054 21.1536 15.0049 20.7632C14.7043 20.3727 14.2919 20.0831 13.8225 19.9332L13.1146 19.7286C12.5646 20.411 11.8688 20.9616 11.0781 21.3399C10.2875 21.7182 9.42216 21.9145 8.54569 21.9145C7.66922 21.9145 6.80389 21.7182 6.01325 21.3399C5.22261 20.9616 4.52675 20.411 3.97679 19.7286L3.26889 19.9332C2.79953 20.0831 2.38706 20.3727 2.08651 20.7632C1.78597 21.1536 1.61165 21.6265 1.58681 22.1186L1.28481 26.6647C1.27736 26.7879 1.22311 26.9036 1.13317 26.9881C1.04323 27.0726 0.92439 27.1196 0.800974 27.1194H0.752264C0.623553 27.1102 0.503733 27.0504 0.419107 26.9529C0.334482 26.8555 0.291968 26.7285 0.300895 26.5998L0.602891 22.0536C0.640081 21.3622 0.888123 20.6987 1.31365 20.1524C1.73919 19.6061 2.3218 19.2032 2.98313 18.998L3.83391 18.7512C4.20322 18.641 4.53844 18.4387 4.80809 18.1634H3.40852C2.84899 18.1626 2.31262 17.9399 1.91697 17.5443C1.52132 17.1486 1.29866 16.6122 1.2978 16.0527V8.06119C1.2978 6.15529 2.05492 4.32746 3.40259 2.97979C4.75026 1.63211 6.5781 0.875 8.48399 0.875C10.3899 0.875 12.2177 1.63211 13.5654 2.97979C14.9131 4.32746 15.6702 6.15529 15.6702 8.06119V16.0657C15.6693 16.6252 15.4467 17.1616 15.051 17.5572C14.6554 17.9529 14.119 18.1755 13.5595 18.1764H12.2606C12.5302 18.4517 12.8654 18.654 13.2347 18.7642L14.0953 19.011ZM8.54569 20.9593C9.23053 20.9565 9.90723 20.8106 10.5324 20.531C11.1576 20.2514 11.7175 19.8442 12.1761 19.3357C11.4657 18.8898 10.947 18.1952 10.7214 17.3873L10.572 16.8613C9.93784 17.1586 9.24606 17.3127 8.54569 17.3127C7.84532 17.3127 7.15353 17.1586 6.5194 16.8613L6.37002 17.3873C6.14464 18.1944 5.62729 18.8888 4.9185 19.3357C5.37662 19.8436 5.93607 20.2499 6.5608 20.5285C7.18553 20.807 7.86168 20.9515 8.54569 20.9528V20.9593ZM8.54569 16.3385C9.57002 16.3367 10.5519 15.9291 11.2762 15.2047C12.0005 14.4804 12.4082 13.4985 12.4099 12.4742V8.19108C12.2865 7.79167 11.5202 5.59327 9.62703 5.918C9.19514 6.60317 7.57151 8.75285 4.68145 8.65219V12.4742C4.68317 13.4985 5.09084 14.4804 5.81516 15.2047C6.53947 15.9291 7.52136 16.3367 8.54569 16.3385ZM14.7155 16.0657V8.06119C14.7155 7.24541 14.5548 6.43763 14.2426 5.68395C13.9304 4.93028 13.4729 4.24547 12.896 3.66863C12.3192 3.0918 11.6344 2.63422 10.8807 2.32204C10.127 2.00986 9.31925 1.84918 8.50347 1.84918C7.6877 1.84918 6.87992 2.00986 6.12624 2.32204C5.37257 2.63422 4.68776 3.0918 4.11092 3.66863C3.53408 4.24547 3.07651 4.93028 2.76433 5.68395C2.45214 6.43763 2.29146 7.24541 2.29147 8.06119V16.0657C2.29147 16.3671 2.41121 16.6562 2.62435 16.8693C2.83749 17.0825 3.12658 17.2022 3.42801 17.2022H5.40884C5.41712 17.1736 5.42687 17.1454 5.43806 17.1178L5.65887 16.345C5.05482 15.8963 4.56405 15.3127 4.22575 14.6406C3.88746 13.9685 3.71101 13.2266 3.71052 12.4742V8.12289C3.71099 8.05355 3.72597 7.98509 3.75449 7.92189C3.78301 7.85869 3.82445 7.80217 3.87613 7.75595C3.92747 7.70948 3.98843 7.67492 4.05466 7.65471C4.1209 7.6345 4.19077 7.62916 4.25931 7.63904C7.31498 8.03521 8.8347 5.36596 8.89639 5.25555C8.93083 5.19512 8.9775 5.14253 9.03341 5.10116C9.08933 5.05978 9.15326 5.03052 9.22112 5.01526C11.7118 4.39503 13.0334 6.69409 13.3874 7.993C13.3921 8.03616 13.3921 8.07972 13.3874 8.12289V12.4742C13.3869 13.2266 13.2104 13.9685 12.8721 14.6406C12.5338 15.3127 12.0431 15.8963 11.439 16.345L11.6598 17.1178C11.671 17.1454 11.6808 17.1736 11.689 17.2022H13.5757C13.7252 17.2027 13.8734 17.1736 14.0116 17.1166C14.1499 17.0597 14.2756 16.9761 14.3815 16.8705C14.4873 16.7649 14.5713 16.6395 14.6287 16.5014C14.686 16.3633 14.7155 16.2152 14.7155 16.0657Z" stroke="#343434" stroke-width="0.6" mask="url(#path-1-outside-1_2978_3212)"/>
</svg>