<svg xmlns="http://www.w3.org/2000/svg" width="34" height="34" viewBox="0 0 34 34" fill="none">
<path d="M16.8952 0C13.5784 0 10.336 0.983555 7.57818 2.82629C4.82033 4.66902 2.67086 7.28817 1.40156 10.3525C0.132266 13.4169 -0.199839 16.7888 0.447242 20.0419C1.09432 23.295 2.69153 26.2831 5.03688 28.6285C7.38223 30.9739 10.3704 32.5711 13.6235 33.2181C16.8766 33.8652 20.2485 33.5331 23.3129 32.2638C26.3772 30.9945 28.9964 28.845 30.8391 26.0872C32.6818 23.3294 33.6654 20.087 33.6654 16.7702C33.6654 12.3225 31.8985 8.05689 28.7535 4.91187C25.6085 1.76685 21.3429 0 16.8952 0ZM16.8952 29.3478C14.4076 29.3478 11.9758 28.6102 9.90743 27.2281C7.83905 25.8461 6.22694 23.8817 5.27497 21.5834C4.323 19.2852 4.07392 16.7562 4.55923 14.3164C5.04454 11.8766 6.24244 9.63546 8.00146 7.87645C9.76047 6.11744 12.0016 4.91953 14.4414 4.43422C16.8812 3.94891 19.4102 4.19799 21.7084 5.14996C24.0067 6.10193 25.9711 7.71404 27.3531 9.78242C28.7352 11.8508 29.4728 14.2826 29.4728 16.7702C29.4728 18.4219 29.1475 20.0574 28.5154 21.5834C27.8833 23.1094 26.9569 24.496 25.7889 25.6639C24.621 26.8319 23.2344 27.7583 21.7084 28.3904C20.1825 29.0225 18.5469 29.3478 16.8952 29.3478Z" fill="url(#paint0_linear_313_5437)"/>
<defs>
<linearGradient id="paint0_linear_313_5437" x1="16.8952" y1="33.5404" x2="16.8952" y2="0" gradientUnits="userSpaceOnUse">
<stop stop-color="#BEC6C4"/>
<stop offset="1" stop-color="#BEC6C4"/>
</linearGradient>
</defs>
</svg>