<svg xmlns="http://www.w3.org/2000/svg" width="21" height="20" viewBox="0 0 21 20" fill="none">
<path d="M10.5 1.28906C12.3124 1.29113 14.0495 2.01241 15.3311 3.29395C16.6126 4.57548 17.3339 6.31263 17.3359 8.125C17.3359 10.5659 16.2049 13.1574 14.0645 15.6191C13.1034 16.7309 12.0213 17.7318 10.8389 18.6045C10.7404 18.6734 10.6231 18.7109 10.5029 18.7109C10.4128 18.7109 10.3243 18.6899 10.2441 18.6504L10.167 18.6045C8.9825 17.7323 7.89844 16.7312 6.93555 15.6191C4.792 13.1575 3.66406 10.566 3.66406 8.125L3.67285 7.78613C3.75845 6.09721 4.46751 4.49538 5.66895 3.29395C6.87038 2.09251 8.47221 1.38345 10.1611 1.29785L10.5 1.28906ZM10.5 2.46094C8.9978 2.46094 7.55733 3.0579 6.49512 4.12012C5.4329 5.18233 4.83594 6.6228 4.83594 8.125C4.83594 10.3737 5.92472 12.433 7.17188 14.0547C8.41922 15.6766 9.82843 16.865 10.4756 17.374L10.5 17.3936L10.5244 17.374C11.1716 16.865 12.5808 15.6758 13.8281 14.0537C15.0752 12.4318 16.1641 10.3728 16.1641 8.125C16.1641 6.6228 15.5671 5.18233 14.5049 4.12012C13.4427 3.0579 12.0022 2.46094 10.5 2.46094ZM10.5 5.03906C11.3184 5.03906 12.1029 5.36463 12.6816 5.94336C13.2604 6.52208 13.5859 7.30656 13.5859 8.125C13.5859 8.73534 13.4045 9.33236 13.0654 9.83984C12.7264 10.3471 12.2444 10.7421 11.6807 10.9756C11.1169 11.2091 10.4969 11.2703 9.89844 11.1514C9.29982 11.0323 8.74994 10.7382 8.31836 10.3066C7.88678 9.87506 7.5927 9.32518 7.47363 8.72656C7.35467 8.1281 7.41592 7.50807 7.64941 6.94434C7.88291 6.38063 8.2779 5.89864 8.78516 5.55957C9.29264 5.22048 9.88966 5.03906 10.5 5.03906ZM11.2324 6.35645C10.8828 6.21165 10.4981 6.17428 10.127 6.24805C9.75566 6.3219 9.41417 6.5038 9.14648 6.77148C8.8788 7.03917 8.6969 7.38066 8.62305 7.75195C8.54928 8.12311 8.58665 8.5078 8.73145 8.85742C8.87632 9.20717 9.12176 9.50648 9.43652 9.7168C9.75127 9.92708 10.1215 10.0391 10.5 10.0391C11.0076 10.0391 11.4946 9.83747 11.8535 9.47852C12.2125 9.11956 12.4141 8.63264 12.4141 8.125C12.4141 7.74647 12.3021 7.37627 12.0918 7.06152C11.8815 6.74676 11.5822 6.50132 11.2324 6.35645Z" fill="#303030" stroke="#303030" stroke-width="0.078125"/>
</svg>