<svg xmlns="http://www.w3.org/2000/svg" width="21" height="20" viewBox="0 0 21 20" fill="none">
<path d="M6.82617 1.922C7.08548 1.89033 7.34851 1.94451 7.5752 2.07434C7.77358 2.18798 7.93511 2.35517 8.04199 2.55579L8.08496 2.64368L9.73535 6.32434V6.33215L9.73828 6.33997C9.81676 6.52338 9.84847 6.72326 9.83105 6.922C9.81364 7.1206 9.74773 7.31176 9.63867 7.47864C9.62571 7.49808 9.6116 7.51659 9.59668 7.53528L7.97363 9.46594L7.95703 9.48547L7.96777 9.50891C8.55682 10.7058 9.80715 11.9464 11.0195 12.5353L11.043 12.546L11.0625 12.5294L12.9639 10.9083L13.0186 10.8673C13.186 10.7557 13.3787 10.6876 13.5791 10.6691C13.7796 10.6506 13.9819 10.6827 14.167 10.7618V10.7609L14.1758 10.7657L17.8564 12.4152H17.8574C18.0969 12.5192 18.2961 12.6983 18.4258 12.9249C18.5554 13.1515 18.6088 13.4139 18.5771 13.673C18.4391 14.7222 17.9232 15.6849 17.127 16.382C16.3307 17.079 15.3082 17.463 14.25 17.4611C8.0685 17.4611 3.03915 12.4316 3.03906 6.25012C3.03717 5.19187 3.42012 4.16843 4.11719 3.37219C4.81425 2.57597 5.77796 2.06104 6.82715 1.92297L6.82617 1.922ZM6.96875 3.08606C6.20332 3.18851 5.50163 3.56646 4.99414 4.14856C4.48659 4.73078 4.20796 5.47773 4.21094 6.25012C4.21387 8.9117 5.27227 11.4638 7.1543 13.3458C9.03634 15.2278 11.5884 16.2863 14.25 16.2892C15.0232 16.2918 15.7712 16.0128 16.3535 15.504C16.9358 14.9952 17.3129 14.2912 17.4141 13.5245L17.4199 13.4806H17.376L13.7109 11.839L13.6875 11.8292L13.6689 11.8448L11.7695 13.4659L11.7158 13.507C11.5416 13.6231 11.3397 13.692 11.1309 13.7072C10.922 13.7222 10.7125 13.6828 10.5234 13.5929H10.5244C9.06898 12.8897 7.61607 11.4486 6.91211 10.0089C6.82132 9.82111 6.78069 9.61259 6.79395 9.40442C6.80724 9.19633 6.87443 8.99513 6.98828 8.82043V8.81946C7.00039 8.80013 7.01435 8.78199 7.0293 8.76477L7.03027 8.76379L8.64453 6.83118L8.66016 6.81262L8.65039 6.79016L7.0127 3.12512L7.01758 3.07922L6.96875 3.08606Z" fill="#303030" stroke="#767676" stroke-width="0.078125"/>
</svg>