<svg xmlns="http://www.w3.org/2000/svg" width="41" height="41" viewBox="0 0 41 41" fill="none">
  <path d="M17.2015 23.8333L35.5348 5.5M17.2015 23.8333L23.0348 35.5C23.1079 35.6596 23.2253 35.7948 23.373 35.8896C23.5208 35.9844 23.6926 36.0348 23.8681 36.0348C24.0436 36.0348 24.2155 35.9844 24.3632 35.8896C24.5109 35.7948 24.6283 35.6596 24.7015 35.5L35.5348 5.5M17.2015 23.8333L5.53479 18C5.37522 17.9269 5.24 17.8095 5.1452 17.6618C5.05039 17.514 5 17.3422 5 17.1667C5 16.9911 5.05039 16.8193 5.1452 16.6716C5.24 16.5239 5.37522 16.4065 5.53479 16.3333L35.5348 5.5" stroke="#A2ACAB" stroke-width="3.33333" stroke-linecap="round" stroke-linejoin="round"/>
</svg>