<svg xmlns="http://www.w3.org/2000/svg" width="17" height="17" viewBox="0 0 17 17" fill="none">
<path d="M11.8446 10.3116C11.5111 10.3115 11.1809 10.3783 10.8737 10.5081C10.5664 10.6379 10.2883 10.828 10.0559 11.0672L7.17463 9.21532C7.40127 8.63414 7.40127 7.98901 7.17463 7.40782L10.0559 5.55595C10.4887 5.99927 11.0706 6.26611 11.689 6.30471C12.3073 6.34332 12.918 6.15096 13.4026 5.76491C13.8871 5.37887 14.2111 4.82665 14.3116 4.21532C14.4122 3.60398 14.2822 2.97709 13.9468 2.45618C13.6114 1.93527 13.0945 1.55745 12.4964 1.39598C11.8982 1.2345 11.2614 1.30088 10.7095 1.58223C10.1575 1.86358 9.72965 2.33987 9.50888 2.91875C9.28812 3.49763 9.29017 4.13787 9.51463 4.71532L6.63338 6.5672C6.28642 6.21099 5.84112 5.96635 5.35441 5.86454C4.86769 5.76272 4.36167 5.80837 3.90102 5.99564C3.44038 6.1829 3.04605 6.50328 2.76843 6.91582C2.49082 7.32836 2.34253 7.81432 2.34253 8.31157C2.34253 8.80883 2.49082 9.29478 2.76843 9.70732C3.04605 10.1199 3.44038 10.4402 3.90102 10.6275C4.36167 10.8148 4.86769 10.8604 5.35441 10.7586C5.84112 10.6568 6.28642 10.4122 6.63338 10.0559L9.51463 11.9078C9.32161 12.4057 9.29305 12.9522 9.43313 13.4674C9.57321 13.9827 9.87456 14.4395 10.2931 14.7711C10.7116 15.1027 11.2253 15.2916 11.7589 15.3101C12.2925 15.3286 12.818 15.1758 13.2585 14.874C13.699 14.5722 14.0313 14.1374 14.2067 13.6331C14.3822 13.1288 14.3916 12.5816 14.2335 12.0716C14.0755 11.5615 13.7583 11.1155 13.3284 10.7988C12.8985 10.4821 12.3786 10.3114 11.8446 10.3116ZM11.8446 2.31157C12.1413 2.31157 12.4313 2.39955 12.678 2.56437C12.9247 2.72919 13.1169 2.96346 13.2305 3.23755C13.344 3.51164 13.3737 3.81324 13.3158 4.10421C13.2579 4.39518 13.1151 4.66245 12.9053 4.87223C12.6955 5.08201 12.4282 5.22487 12.1373 5.28275C11.8463 5.34063 11.5447 5.31092 11.2706 5.19739C10.9965 5.08386 10.7623 4.8916 10.5974 4.64493C10.4326 4.39825 10.3446 4.10824 10.3446 3.81157C10.3446 3.41375 10.5027 3.03222 10.784 2.75091C11.0653 2.46961 11.4468 2.31157 11.8446 2.31157ZM4.84463 9.81157C4.54796 9.81157 4.25795 9.7236 4.01128 9.55878C3.7646 9.39395 3.57235 9.15969 3.45881 8.8856C3.34528 8.61151 3.31558 8.30991 3.37345 8.01894C3.43133 7.72797 3.57419 7.46069 3.78397 7.25091C3.99375 7.04113 4.26103 6.89827 4.552 6.84039C4.84297 6.78252 5.14457 6.81222 5.41866 6.92575C5.69275 7.03928 5.92701 7.23154 6.09184 7.47822C6.25666 7.72489 6.34463 8.0149 6.34463 8.31157C6.34463 8.7094 6.1866 9.09093 5.90529 9.37223C5.62399 9.65354 5.24246 9.81157 4.84463 9.81157ZM11.8446 14.3116C11.548 14.3116 11.258 14.2236 11.0113 14.0588C10.7646 13.894 10.5723 13.6597 10.4588 13.3856C10.3453 13.1115 10.3156 12.8099 10.3735 12.5189C10.4313 12.228 10.5742 11.9607 10.784 11.7509C10.9938 11.5411 11.261 11.3983 11.552 11.3404C11.843 11.2825 12.1446 11.3122 12.4187 11.4258C12.6927 11.5393 12.927 11.7315 13.0918 11.9782C13.2567 12.2249 13.3446 12.5149 13.3446 12.8116C13.3446 13.2094 13.1866 13.5909 12.9053 13.8722C12.624 14.1535 12.2425 14.3116 11.8446 14.3116Z" fill="#303030"/>
</svg>