<svg xmlns="http://www.w3.org/2000/svg" width="15" height="29" viewBox="0 0 15 29" fill="none">
<path d="M13.7383 0.775391C14.1578 0.775396 14.4969 1.11509 14.4971 1.53418V5.36523C14.4971 5.38721 14.4961 5.4097 14.4941 5.43164C14.4956 5.45033 14.4971 5.47212 14.4971 5.49414C14.4971 5.55787 14.4883 5.61994 14.4727 5.68066L12.8066 24.8525C12.78 25.2476 12.4507 25.5586 12.0488 25.5586H10.9141V28.3408C10.9139 28.7601 10.5736 29.0996 10.1543 29.0996H5.11426C4.69497 29.0996 4.35465 28.7601 4.35449 28.3408V25.5596H3.21582C2.82631 25.5595 2.49381 25.2626 2.45898 24.8662L0.793945 5.68555C0.778335 5.62447 0.768574 5.56085 0.768555 5.49414C0.768555 5.47612 0.769876 5.45706 0.771484 5.4375L0.768555 5.36523V1.53418C0.768715 1.11513 1.10803 0.775614 1.52637 0.775391H13.7383ZM5.87402 27.582H9.39551V25.5596H5.87402V27.582ZM3.91211 24.042H11.3555L11.5703 21.5605H3.69727L3.91211 24.042ZM3.56641 20.043H11.7031L12.9004 6.25391H2.36914L3.56641 20.043ZM7.63477 10.498C8.05415 10.498 8.3945 10.8384 8.39453 11.2578V12.4092H9.5459C9.96502 12.4094 10.3045 12.7488 10.3047 13.168C10.3047 13.5872 9.96513 13.9275 9.5459 13.9277H8.39453V15.0791C8.39431 15.4983 8.05403 15.8379 7.63477 15.8379C7.21565 15.8377 6.8762 15.4982 6.87598 15.0791V13.9277H5.72461C5.30524 13.9277 4.96484 13.5873 4.96484 13.168C4.96501 12.7487 5.30535 12.4092 5.72461 12.4092H6.87598V11.2578C6.87601 10.8385 7.21554 10.4982 7.63477 10.498ZM2.28906 4.73633H12.9824V2.29492H2.28906V4.73633Z" fill="#343434" stroke="#343434" stroke-width="0.2"/>
</svg>