<svg width="16" height="16" viewBox="0 0 16 16" fill="none" xmlns="http://www.w3.org/2000/svg">
<path d="M14.9488 6.07876C14.8863 5.88658 14.7683 5.71721 14.6097 5.59198C14.4511 5.46674 14.259 5.39125 14.0575 5.37501L10.37 5.07751L8.94629 1.63438C8.8693 1.44677 8.73825 1.28629 8.56981 1.17334C8.40137 1.0604 8.20315 1.00009 8.00035 1.00009C7.79756 1.00009 7.59934 1.0604 7.4309 1.17334C7.26246 1.28629 7.13141 1.44677 7.05442 1.63438L5.63192 5.07688L1.94254 5.37501C1.74078 5.39207 1.54854 5.4683 1.3899 5.59413C1.23127 5.71997 1.1133 5.88983 1.05077 6.08241C0.988239 6.275 0.983936 6.48176 1.0384 6.67679C1.09286 6.87181 1.20366 7.04643 1.35692 7.17876L4.16942 9.60563L3.31254 13.2344C3.26462 13.4315 3.27635 13.6385 3.34625 13.8289C3.41615 14.0194 3.54107 14.1848 3.70514 14.3041C3.86921 14.4235 4.06505 14.4913 4.26778 14.4992C4.47051 14.507 4.671 14.4544 4.84379 14.3481L8.00004 12.4056L11.1582 14.3481C11.331 14.4532 11.5311 14.5048 11.7332 14.4963C11.9353 14.4879 12.1304 14.4199 12.2939 14.3008C12.4574 14.1817 12.5821 14.0169 12.6521 13.8272C12.7221 13.6374 12.7345 13.4311 12.6875 13.2344L11.8275 9.60501L14.64 7.17813C14.7945 7.04602 14.9064 6.87103 14.9613 6.67532C15.0163 6.47961 15.0119 6.27199 14.9488 6.07876ZM13.99 6.42063L10.9463 9.04563C10.8769 9.10546 10.8252 9.18322 10.797 9.2704C10.7688 9.35759 10.7651 9.45085 10.7863 9.54001L11.7163 13.465C11.7187 13.4704 11.7189 13.4765 11.717 13.4821C11.715 13.4877 11.7109 13.4923 11.7057 13.495C11.6944 13.5038 11.6913 13.5019 11.6819 13.495L8.26192 11.3919C8.18315 11.3435 8.0925 11.3178 8.00004 11.3178C7.90758 11.3178 7.81693 11.3435 7.73817 11.3919L4.31817 13.4963C4.30879 13.5019 4.30629 13.5038 4.29442 13.4963C4.28914 13.4936 4.2851 13.489 4.28312 13.4834C4.28115 13.4778 4.28139 13.4717 4.28379 13.4663L5.21379 9.54126C5.23499 9.4521 5.23127 9.35884 5.20306 9.27165C5.17484 9.18447 5.1232 9.10671 5.05379 9.04688L2.01004 6.42188C2.00254 6.41563 1.99567 6.41001 2.00192 6.39063C2.00817 6.37126 2.01317 6.37376 2.02254 6.37251L6.01754 6.05001C6.10917 6.04215 6.19686 6.00917 6.27096 5.95469C6.34506 5.90022 6.4027 5.82637 6.43754 5.74126L7.97629 2.01563C7.98129 2.005 7.98317 2 7.99817 2C8.01317 2 8.01504 2.005 8.02004 2.01563L9.56254 5.74126C9.59771 5.8264 9.65572 5.90017 9.73016 5.95444C9.80461 6.0087 9.89259 6.04134 9.98442 6.04876L13.9794 6.37126C13.9888 6.37126 13.9944 6.37126 14 6.38938C14.0057 6.40751 14 6.41438 13.99 6.42063Z" fill="#343434"/>
</svg>
