<svg xmlns="http://www.w3.org/2000/svg" width="30" height="30" viewBox="0 0 30 30" fill="none">
<path d="M25.4736 16.0977C24.949 15.8804 24.3714 15.8228 23.8145 15.9336C23.2576 16.0444 22.7462 16.3183 22.3447 16.7197C21.9433 17.1212 21.6694 17.6326 21.5586 18.1895C21.4478 18.7464 21.5054 19.324 21.7227 19.8486C21.94 20.3733 22.3081 20.8222 22.7803 21.1377C23.2523 21.453 23.8073 21.6211 24.375 21.6211C25.1365 21.6211 25.8668 21.3187 26.4053 20.7803C26.9437 20.2418 27.2461 19.5115 27.2461 18.75C27.2461 18.1823 27.078 17.6273 26.7627 17.1553C26.4472 16.6831 25.9983 16.315 25.4736 16.0977ZM24.375 17.4023C24.7324 17.4023 25.0754 17.5441 25.3281 17.7969C25.5809 18.0496 25.7227 18.3926 25.7227 18.75C25.7227 19.0165 25.6432 19.2774 25.4951 19.499C25.347 19.7205 25.1367 19.8932 24.8906 19.9951C24.6444 20.0971 24.3737 20.1233 24.1123 20.0713C23.8509 20.0193 23.6103 19.8916 23.4219 19.7031C23.2334 19.5147 23.1057 19.2741 23.0537 19.0127C23.0017 18.7513 23.0279 18.4806 23.1299 18.2344C23.2318 17.9883 23.4045 17.778 23.626 17.6299C23.8476 17.4818 24.1085 17.4023 24.375 17.4023ZM11.3086 17.7012L11.2578 17.6943C9.45974 17.4678 7.80526 16.5935 6.60645 15.2344C5.40762 13.8752 4.74632 12.1248 4.74609 10.3125V4.6875C4.74609 4.4544 4.83908 4.23123 5.00391 4.06641C5.14813 3.92218 5.33689 3.83248 5.53809 3.8125L5.625 3.80859H8.4375C8.6706 3.80859 8.89377 3.90158 9.05859 4.06641C9.22342 4.23123 9.31641 4.4544 9.31641 4.6875C9.31641 4.9206 9.22342 5.14377 9.05859 5.30859C8.89377 5.47342 8.6706 5.56641 8.4375 5.56641H6.50391V10.3125L6.51074 10.5947C6.54331 11.2509 6.68944 11.8974 6.94336 12.5049C7.23371 13.1994 7.65949 13.8296 8.19531 14.3584C8.73114 14.8872 9.36709 15.3038 10.0654 15.585C10.7637 15.866 11.511 16.0061 12.2637 15.9961C15.3563 15.9556 17.8711 13.3606 17.8711 10.2148V5.56641H15.9375C15.7044 5.56641 15.4812 5.47342 15.3164 5.30859C15.1516 5.14377 15.0586 4.9206 15.0586 4.6875C15.0586 4.4544 15.1516 4.23123 15.3164 4.06641C15.4812 3.90158 15.7044 3.80859 15.9375 3.80859H18.75C18.9831 3.80859 19.2063 3.90158 19.3711 4.06641C19.5359 4.23123 19.6289 4.4544 19.6289 4.6875V10.2148C19.6289 14.034 16.7757 17.226 13.1172 17.6934L13.0664 17.7002V22.5C13.0664 23.5101 13.4674 24.4791 14.1816 25.1934C14.8959 25.9076 15.8649 26.3086 16.875 26.3086H19.6875C20.5523 26.3072 21.3913 26.0122 22.0664 25.4717C22.7415 24.9311 23.2129 24.1766 23.4033 23.333L23.416 23.2764L23.3594 23.2627C22.2414 23.0116 21.2554 22.3554 20.5938 21.4199C19.9321 20.4843 19.6415 19.3361 19.7773 18.1982C19.9131 17.0604 20.4659 16.0134 21.3291 15.2598C22.1923 14.5062 23.3045 14.0992 24.4502 14.1182C25.596 14.1372 26.6945 14.5814 27.5322 15.3633C28.3697 16.1452 28.8875 17.21 28.9854 18.3516C29.0832 19.4932 28.7539 20.6309 28.0615 21.5439C27.3692 22.4568 26.3629 23.0801 25.2373 23.2939L25.1895 23.3037V23.3516C24.9845 24.6629 24.3179 25.8584 23.3105 26.7227C22.3016 27.5881 21.0168 28.0647 19.6875 28.0664H16.875C15.3992 28.0649 13.984 27.4781 12.9404 26.4346C11.8969 25.391 11.3101 23.9758 11.3086 22.5V17.7012Z" fill="#343434" stroke="#767676" stroke-width="0.117188"/>
</svg>