<svg xmlns="http://www.w3.org/2000/svg" width="28" height="27" viewBox="0 0 28 27" fill="none">
<path d="M26.2287 7.87888L20.8249 13.2827L16.3173 8.77505L23.8211 1.2713C24.0263 1.06602 24.0263 0.734228 23.8211 0.528955C23.6158 0.323682 23.284 0.323682 23.0787 0.528955L13.1038 10.5039C12.8986 10.7091 12.8986 11.0409 13.1038 11.2462L13.2577 11.4L1.02895 23.6287C0.823682 23.834 0.823682 24.1658 1.02895 24.3711L1.29933 24.6414C2.62966 25.9723 4.37737 26.6375 6.12508 26.6375C6.21118 26.6375 6.29728 26.6285 6.38338 26.6254H14C14.2898 26.6254 14.525 26.3902 14.525 26.1004C14.525 25.8106 14.2898 25.5754 14 25.5754H9.77904C10.1943 25.3119 10.5891 25.0037 10.9508 24.642L16.4712 19.1216C16.6764 18.9164 16.6764 18.5846 16.4712 18.3793L16.2276 18.1357C15.4086 17.3167 15.4086 15.9843 16.2276 15.1658L16.625 14.7673L18.3538 16.4961C18.4562 16.5985 18.5906 16.65 18.725 16.65C18.8593 16.65 18.9937 16.5985 19.0961 16.4961L26.971 8.62122C27.1763 8.41595 27.1763 8.08415 26.971 7.87888C26.7658 7.67361 26.434 7.67361 26.2287 7.87888ZM15.4852 14.4224C14.2998 15.6079 14.2588 17.511 15.3613 18.7463L10.209 23.8986C9.15377 24.9538 7.78879 25.5082 6.40438 25.5744H6.12508C6.10985 25.5744 6.09725 25.5817 6.08255 25.5828C4.66244 25.5723 3.24496 25.0467 2.14352 23.9978L14 12.1424L15.8826 14.025L15.4852 14.4224ZM18.725 15.3826L16.9961 13.6538L14.3712 11.0288L14.2173 10.875L15.575 9.51739L20.0826 14.025L18.725 15.3826Z" fill="#343434" stroke="#343434" stroke-width="0.4"/>
<path d="M9.42932 17.8539L6.80435 20.4789C6.59907 20.6842 6.59907 21.0159 6.80435 21.2212C6.90672 21.3236 7.04112 21.375 7.17552 21.375C7.30992 21.375 7.44431 21.3236 7.54669 21.2212L10.1717 18.5962C10.3769 18.391 10.3769 18.0592 10.1717 17.8539C9.96639 17.6486 9.63459 17.6486 9.42932 17.8539Z" fill="#343434"/>
<path d="M26.599 25.575H19.2491C18.9593 25.575 18.7241 25.8101 18.7241 26.0999C18.7241 26.3897 18.9593 26.6249 19.2491 26.6249H26.599C26.8888 26.6249 27.124 26.3897 27.124 26.0999C27.124 25.8101 26.8888 25.575 26.599 25.575Z" fill="#343434"/>
</svg>