<svg xmlns="http://www.w3.org/2000/svg" width="30" height="30" viewBox="0 0 30 30" fill="none">
  <path d="M21.5625 1.93311C21.6778 1.93316 21.7919 1.95635 21.8984 2.00049C22.0051 2.04468 22.1019 2.10928 22.1836 2.19092L27.8086 7.81592C27.9735 7.98084 28.0664 8.20475 28.0664 8.43799C28.0663 8.67106 27.9734 8.89426 27.8086 9.05908C27.6438 9.2239 27.4206 9.31677 27.1875 9.31689C26.9543 9.31689 26.7304 9.22401 26.5654 9.05908L24.416 6.90869L24.375 6.86768L24.333 6.90869L20.9707 10.271L20.9297 10.313L20.9707 10.354L24.9961 14.3784C25.0778 14.4601 25.1433 14.5569 25.1875 14.6636C25.2316 14.7702 25.2539 14.8851 25.2539 15.0005C25.2538 15.1157 25.2316 15.23 25.1875 15.3364C25.1433 15.4431 25.0778 15.5399 24.9961 15.6216C24.9144 15.7032 24.8176 15.7688 24.7109 15.813C24.6045 15.857 24.4902 15.8793 24.375 15.8794C24.2596 15.8794 24.1447 15.8571 24.0381 15.813C23.9314 15.7688 23.8346 15.7032 23.7529 15.6216L23.0098 14.8774L22.9688 14.8364L22.9268 14.8774L13.083 24.7212C12.915 24.8905 12.7145 25.0253 12.4941 25.1167C12.274 25.2079 12.0381 25.2551 11.7998 25.2544H5.98828L5.9707 25.271L3.43359 27.8091C3.35193 27.8907 3.25513 27.9563 3.14844 28.0005C3.04196 28.0445 2.92773 28.0668 2.8125 28.0669C2.57926 28.0669 2.35535 27.974 2.19043 27.8091C2.10879 27.7274 2.04419 27.6306 2 27.5239C1.95586 27.4174 1.93268 27.3033 1.93262 27.188C1.93262 27.0725 1.9558 26.9578 2 26.8511C2.04419 26.7444 2.10879 26.6476 2.19043 26.5659L4.72852 24.0288L4.74609 24.0112V18.2007C4.74533 17.9623 4.79153 17.7256 4.88281 17.5054C4.95133 17.3401 5.04378 17.1858 5.15723 17.0483L5.27832 16.9165L15.1631 7.03174L15.1221 6.98975L14.3779 6.24658C14.2131 6.08177 14.1202 5.85855 14.1201 5.62549C14.1201 5.39225 14.213 5.16834 14.3779 5.00342C14.5429 4.83849 14.7668 4.74561 15 4.74561C15.2331 4.74573 15.4563 4.83862 15.6211 5.00342L19.6455 9.02881L19.6875 9.06982L23.1318 5.62549L23.0908 5.5835L20.9404 3.43408C20.8588 3.35243 20.7942 3.2556 20.75 3.14893C20.7059 3.04237 20.6827 2.92832 20.6826 2.81299C20.6826 2.6975 20.7058 2.58277 20.75 2.47607C20.7942 2.36941 20.8588 2.27256 20.9404 2.19092C21.0221 2.10928 21.1189 2.04468 21.2256 2.00049C21.3323 1.95629 21.447 1.93311 21.5625 1.93311ZM16.3643 8.31494L12.7676 11.9116L12.7266 11.9536L12.7676 11.9946L15.1523 14.3784C15.3173 14.5433 15.4102 14.7672 15.4102 15.0005C15.41 15.2336 15.3172 15.4568 15.1523 15.6216C14.9875 15.7864 14.7643 15.8793 14.5312 15.8794C14.298 15.8794 14.0741 15.7865 13.9092 15.6216L11.5254 13.2368L11.4844 13.1958L11.4424 13.2368L9.95508 14.7241L9.91406 14.7661L9.95508 14.8071L12.3398 17.1909C12.4215 17.2726 12.4871 17.3694 12.5312 17.4761C12.5754 17.5827 12.5977 17.6976 12.5977 17.813C12.5976 17.9282 12.5753 18.0425 12.5312 18.1489C12.4871 18.2556 12.4215 18.3524 12.3398 18.4341C12.2582 18.5157 12.1614 18.5813 12.0547 18.6255C11.9482 18.6695 11.834 18.6918 11.7188 18.6919C11.6033 18.6919 11.4885 18.6696 11.3818 18.6255C11.2751 18.5813 11.1783 18.5157 11.0967 18.4341L8.71289 16.0493L8.67188 16.0083L8.62988 16.0493L6.52051 18.1587L6.50391 18.1763V23.4966H11.8232L21.7256 13.5942L21.6846 13.5522L16.4062 8.27393L16.3643 8.31494Z" fill="#303030" stroke="#767676" stroke-width="0.117188"/>
</svg>