<svg width="91" height="90" viewBox="0 0 91 90" fill="none" xmlns="http://www.w3.org/2000/svg">
<g clip-path="url(#clip0_678_8264)">
<path opacity="0.8" d="M45.5 90C70.3528 90 90.5 69.8528 90.5 45C90.5 20.1472 70.3528 0 45.5 0C20.6472 0 0.5 20.1472 0.5 45C0.5 69.8528 20.6472 90 45.5 90Z" fill="#E4E7E6"/>
<path d="M42.2015 48.3333L60.5348 30M42.2015 48.3333L48.0348 60C48.1079 60.1596 48.2253 60.2948 48.373 60.3896C48.5208 60.4844 48.6926 60.5348 48.8681 60.5348C49.0436 60.5348 49.2155 60.4844 49.3632 60.3896C49.5109 60.2948 49.6283 60.1596 49.7015 60L60.5348 30M42.2015 48.3333L30.5348 42.5C30.3752 42.4269 30.24 42.3095 30.1452 42.1618C30.0504 42.014 30 41.8422 30 41.6667C30 41.4911 30.0504 41.3193 30.1452 41.1716C30.24 41.0239 30.3752 40.9065 30.5348 40.8333L60.5348 30" stroke="#A2ACAB" stroke-width="3.33333" stroke-linecap="round" stroke-linejoin="round"/>
</g>
<defs>
<clipPath id="clip0_678_8264">
<rect x="0.5" width="90" height="90" rx="45" fill="white"/>
</clipPath>
</defs>
</svg>
